<svg width="50" height="50" viewBox="0 0 50 50" fill="none" xmlns="http://www.w3.org/2000/svg">
<rect width="50" height="50" rx="25" fill="#0CBC8B"/>
<path d="M22.1534 23.0398C22.0436 22.6951 21.8958 22.3864 21.7102 22.1136C21.5284 21.8371 21.3106 21.6023 21.0568 21.4091C20.803 21.2121 20.5133 21.0625 20.1875 20.9602C19.8655 20.858 19.5114 20.8068 19.125 20.8068C18.4697 20.8068 17.8788 20.9754 17.3523 21.3125C16.8258 21.6496 16.4091 22.1439 16.1023 22.7955C15.7992 23.4432 15.6477 24.2367 15.6477 25.1761C15.6477 26.1193 15.8011 26.9167 16.108 27.5682C16.4148 28.2197 16.8352 28.714 17.3693 29.0511C17.9034 29.3883 18.5114 29.5568 19.1932 29.5568C19.8258 29.5568 20.3769 29.428 20.8466 29.1705C21.3201 28.9129 21.6856 28.5492 21.9432 28.0795C22.2045 27.6061 22.3352 27.0492 22.3352 26.4091L22.7898 26.4943H19.4602V25.0455H24.0341V26.3693C24.0341 27.3466 23.8258 28.1951 23.4091 28.9148C22.9962 29.6307 22.4242 30.1837 21.6932 30.5739C20.9659 30.964 20.1326 31.1591 19.1932 31.1591C18.1402 31.1591 17.2159 30.9167 16.4205 30.4318C15.6288 29.947 15.0114 29.2595 14.5682 28.3693C14.125 27.4754 13.9034 26.4148 13.9034 25.1875C13.9034 24.2595 14.0322 23.4261 14.2898 22.6875C14.5473 21.9489 14.9091 21.322 15.375 20.8068C15.8447 20.2879 16.3958 19.892 17.0284 19.6193C17.6648 19.3428 18.3598 19.2045 19.1136 19.2045C19.7424 19.2045 20.3277 19.2973 20.8693 19.483C21.4148 19.6686 21.8996 19.9318 22.3239 20.2727C22.7519 20.6136 23.1061 21.0189 23.3864 21.4886C23.6667 21.9545 23.8561 22.4716 23.9545 23.0398H22.1534ZM26.8864 31H25.0227L29.2102 19.3636H31.2386L35.4261 31H33.5625L30.2727 21.4773H30.1818L26.8864 31ZM27.1989 26.4432H33.2443V27.9205H27.1989V26.4432Z" fill="white"/>
</svg>
