<svg width="90" height="26" viewBox="0 0 90 26" fill="none" xmlns="http://www.w3.org/2000/svg">
<path fill-rule="evenodd" clip-rule="evenodd" d="M18.092 0.713738L3.39611 7.31405C0.956692 8.40974 -0.0774699 11.3633 1.19275 13.7265C2.91858 16.9373 6.29652 19.1184 10.1812 19.1184C15.8203 19.1184 20.3919 14.5219 20.3919 8.85249V2.21352C20.3919 1.26605 19.6193 0.569031 18.7586 0.569031C18.5384 0.569031 18.3122 0.614711 18.0917 0.713738H18.092Z" fill="#000A4A"/>
<path d="M0 8.85289C0 14.5227 4.57128 19.1191 10.2107 19.1191C14.0954 19.1191 17.4734 16.938 19.1992 13.7273C20.4694 11.364 19.4356 8.41046 16.9958 7.31478L2.29994 0.714458C1.21939 0.229225 0 1.02432 0 2.21424V8.85321L0 8.85289Z" fill="#00C6FB"/>
<path d="M25.1027 18.4553V2.84092C25.1027 2.34802 25.2831 1.90719 25.6444 1.56986C25.9796 1.20665 26.4183 1.02521 26.9082 1.02521H37.6915V4.00816H28.6366V7.76895H35.3699V8.9362C35.3699 9.4291 35.1891 9.86993 34.854 10.2331C34.4927 10.5705 34.0543 10.7519 33.564 10.7519H28.6369V18.4553H25.1027Z" fill="#000A4A"/>
<path d="M49.9886 4.96777V12.8788C49.9886 15.2909 49.3694 16.8472 48.1313 17.5995C46.8931 18.3518 45.5257 18.7147 44.0553 18.7147C42.6106 18.6367 41.295 18.2476 40.0826 17.4957C38.8959 16.7434 38.3024 15.2132 38.3024 12.8788V4.96777H41.8367V13.579C41.8367 14.383 42.0689 14.9794 42.5334 15.3685C42.9979 15.7317 43.5393 15.9131 44.1585 15.9131C44.752 15.9131 45.2934 15.7317 45.7837 15.3685C46.2739 14.9794 46.5058 14.3827 46.5058 13.579V6.70554C46.5058 6.23852 46.6605 5.82388 46.9961 5.48655C47.3055 5.14922 47.7185 4.96777 48.2342 4.96777H49.9883H49.9886Z" fill="#000A4A"/>
<path d="M62.2292 18.4552H60.4751C59.9592 18.4552 59.5464 18.2997 59.237 17.9623C58.9015 17.6509 58.7468 17.2359 58.7468 16.743V9.84369C58.7468 9.03966 58.5145 8.44326 58.0246 8.08005C57.5344 7.69097 56.9927 7.50953 56.3995 7.50953C55.7803 7.50953 55.2386 7.69097 54.7744 8.08005C54.3099 8.44326 54.0776 9.03966 54.0776 9.84369V18.4549H50.5434V10.5439C50.5434 8.23562 51.1369 6.70517 52.3235 5.95288C53.5359 5.17472 54.8516 4.75977 56.2962 4.68182C57.7666 4.68182 59.1341 5.0709 60.3722 5.84907C61.6103 6.62723 62.2296 8.18355 62.2296 10.5439V18.4549L62.2292 18.4552Z" fill="#000A4A"/>
<path d="M71.6584 0.973403H73.361C73.8512 0.973403 74.2379 1.15485 74.5734 1.51805C74.9089 1.85538 75.0894 2.27034 75.0894 2.71117V12.5672C75.0894 14.9794 74.3929 16.5877 72.9998 17.4435C71.6326 18.2993 70.1365 18.7143 68.5368 18.7143C67.6599 18.7143 66.8085 18.5587 65.957 18.2734C65.1055 17.9882 64.4351 17.5212 63.9449 16.8727C62.9644 15.6278 62.4745 13.9159 62.4745 11.7632C62.4745 9.63636 62.9648 7.92447 63.9449 6.65341C64.9511 5.3306 66.241 4.68213 67.8143 4.68213C68.6658 4.68213 69.388 4.8377 70.033 5.17503C70.7036 5.58998 71.2453 6.10876 71.6581 6.75723V0.973083L71.6584 0.973403ZM65.9055 11.608C65.9055 12.9566 66.1635 13.9942 66.6537 14.6947C67.1697 15.3949 67.8919 15.7582 68.8209 15.7582C69.7238 15.7582 70.446 15.3949 70.9362 14.6947C71.4264 13.9942 71.6587 12.957 71.6587 11.608C71.6587 10.389 71.4007 9.42936 70.8847 8.72882C70.343 8.05448 69.6209 7.71747 68.7176 7.71747C67.8665 7.71747 67.1697 8.08068 66.6537 8.78089C66.1635 9.45524 65.9055 10.389 65.9055 11.6083V11.608Z" fill="#000A4A"/>
<path d="M75.6825 18.4553V2.84092C75.6825 2.34802 75.863 1.90719 76.2242 1.56986C76.5594 1.20665 76.9981 1.02521 77.4881 1.02521H84.0921C85.9752 1.02521 87.3684 1.44016 88.2713 2.24452C89.2257 3.10062 89.6902 4.31962 89.6902 5.95356C89.6902 7.01699 89.458 7.92484 88.9938 8.62506C88.5811 9.2994 87.9361 9.7923 87.0589 10.1034C87.8329 10.3628 88.3746 10.7778 88.684 11.3224C88.9677 11.8153 89.1485 12.6711 89.2257 13.8904L89.329 15.9655C89.329 16.1732 89.329 16.4064 89.329 16.6399C89.329 16.8734 89.3547 17.0807 89.3808 17.2883C89.484 17.8851 89.6902 18.2741 90 18.4556H86.053C85.8983 18.1182 85.795 17.7554 85.7693 17.3922C85.6921 16.8475 85.666 16.4843 85.666 16.277L85.6146 14.4095C85.537 13.3982 85.3309 12.6718 84.9953 12.2309C84.6341 11.8418 83.9895 11.6601 83.0347 11.6601H79.2682V18.4559H75.6825V18.4553ZM79.2682 8.62506H83.4474C84.3504 8.62506 85.0211 8.44362 85.4595 8.08041C85.898 7.69133 86.1045 7.12081 86.1045 6.34264C86.1045 5.56448 85.898 4.99396 85.4595 4.63075C85.0468 4.2158 84.4536 4.00816 83.6536 4.00816H79.2682V8.62506Z" fill="#000A4A"/>
<path fill-rule="evenodd" clip-rule="evenodd" d="M88.23 23.5465C88.5716 23.7066 88.9242 23.7864 89.2222 23.7708C89.2241 23.7708 89.2257 23.7705 89.2276 23.7705L89.2489 21.6408C89.2499 21.5657 89.166 21.5203 89.104 21.5622L87.3223 22.7706C87.4665 23.0469 87.7998 23.345 88.2297 23.5465H88.23Z" fill="#00C6FB"/>
<path fill-rule="evenodd" clip-rule="evenodd" d="M89.1479 23.9746C88.8369 23.9746 88.4845 23.889 88.1449 23.7296C87.6763 23.5101 87.3239 23.1964 87.1546 22.884L86.2488 23.4986C86.1779 23.5466 86.2037 23.6571 86.2882 23.6686L87.8094 23.8769C87.899 23.8893 87.981 23.9337 88.0404 24.0018L89.051 25.1639C89.1073 25.2284 89.2131 25.1891 89.2137 25.1032L89.2251 23.9727C89.1997 23.9743 89.1737 23.9746 89.1476 23.9746H89.1479Z" fill="#00C6FB"/>
<path fill-rule="evenodd" clip-rule="evenodd" d="M89.1479 23.8135C88.8368 23.8135 88.4845 23.7279 88.1449 23.5685C87.3458 23.1938 86.8839 22.5469 87.0932 22.0952C87.3026 21.6439 88.0928 21.5838 88.8918 21.9585C89.1533 22.0812 89.39 22.2403 89.5771 22.4182C89.6175 22.4565 89.6191 22.5207 89.5809 22.5613C89.5425 22.6019 89.479 22.6035 89.4386 22.5651C89.2674 22.4016 89.0488 22.2556 88.8067 22.1419C88.1328 21.8259 87.4316 21.8438 87.2756 22.1805C87.1193 22.5172 87.5565 23.0686 88.23 23.3845C88.5716 23.5445 88.9239 23.6244 89.2222 23.6087C89.4977 23.5944 89.6886 23.5008 89.7608 23.3458C89.8354 23.1842 89.7633 22.9999 89.6893 22.8734C89.661 22.8252 89.6769 22.7632 89.7249 22.7348C89.7728 22.7063 89.8345 22.7223 89.8627 22.7705C90.0022 23.0082 90.0308 23.243 89.9431 23.4311C89.8383 23.657 89.586 23.7918 89.2327 23.8106C89.2044 23.8122 89.1762 23.8129 89.1476 23.8129L89.1479 23.8135Z" fill="#00C6FB"/>
<path d="M52.1882 21.6126C52.8144 21.6126 53.3278 22.0039 53.3278 22.7926C53.3278 23.5698 52.8144 23.9669 52.1882 23.9669C51.5337 23.9669 51.0485 23.4845 51.0485 22.7869C51.0485 22.0892 51.5451 21.6126 52.1882 21.6126ZM50.7718 20.2227V24.194H51.0425V23.5756C51.2738 24.0011 51.731 24.2394 52.205 24.2394C52.9837 24.2394 53.5988 23.7232 53.5988 22.7926C53.5988 21.8678 52.978 21.3459 52.1996 21.3459C51.7198 21.3459 51.2687 21.55 51.0428 22.0039V20.2227H50.7721H50.7718Z" fill="#000A4A"/>
<path d="M56.2393 21.3916L55.5397 23.0425L55.2179 23.8593L54.8906 23.0482L54.2418 21.3916H53.9429L55.06 24.1602L54.5465 25.3629H54.8398L56.5383 21.3916H56.2393Z" fill="#000A4A"/>
<path d="M60.6009 21.6752C60.3073 21.42 59.9633 21.312 59.5343 21.312C58.9307 21.312 58.3324 21.5787 58.3324 22.2141C58.3324 22.8722 58.9812 23.0878 59.5004 23.1105C59.8784 23.1217 59.9744 23.2296 59.9744 23.36C59.9801 23.5075 59.7939 23.604 59.5569 23.5983C59.2633 23.5925 58.9307 23.5302 58.5863 23.2466L58.2365 23.8254C58.7102 24.2225 59.1337 24.302 59.5455 24.302C60.4313 24.302 60.7699 23.8139 60.7642 23.3603C60.7585 22.5888 60.0983 22.4754 59.5512 22.4582C59.2805 22.4524 59.1391 22.3675 59.1391 22.2141C59.1391 22.078 59.2745 21.9816 59.5397 21.9816C59.7936 21.9816 59.9912 22.0384 60.2 22.1857L60.6006 21.6752H60.6009Z" fill="#000A4A"/>
<path d="M62.593 23.519C62.1755 23.519 61.9102 23.2181 61.9102 22.7987C61.9102 22.3959 62.1584 22.0784 62.593 22.0784C62.9596 22.0784 63.3434 22.2655 63.3434 22.7987C63.3434 23.2696 62.9654 23.519 62.593 23.519ZM64.1727 25.4309V21.3973H63.4448L63.394 21.7548C63.1344 21.42 62.8186 21.3462 62.4685 21.3462C61.6503 21.3462 61.0918 21.9247 61.0918 22.7987C61.0918 23.7062 61.6618 24.2566 62.4799 24.2566C62.7735 24.2566 63.1175 24.1544 63.3546 23.8596V25.4309H64.1727Z" fill="#000A4A"/>
<path d="M64.8214 21.3916V22.878C64.8214 23.9673 65.3574 24.2509 65.9839 24.2509C66.3223 24.2567 66.6384 24.1602 66.8866 23.8254L66.9148 24.1941H67.6484V21.3916H66.8472V22.8384C66.8472 23.2016 66.5933 23.5306 66.2152 23.5248C65.826 23.5248 65.6398 23.3035 65.6398 22.8725V21.3919H64.8217L64.8214 21.3916Z" fill="#000A4A"/>
<path d="M70.4641 21.7148C70.3173 21.4654 69.99 21.3293 69.6402 21.3293C68.8164 21.3178 68.1787 21.8624 68.1787 22.793C68.1787 23.7178 68.7824 24.2624 69.6177 24.2566C69.8887 24.2509 70.2893 24.1375 70.4755 23.8423L70.5206 24.194H71.2542C71.2542 23.2635 71.2542 22.3218 71.2542 21.3916H70.4927L70.4644 21.7148H70.4641ZM69.7247 22.0496C70.2099 22.0496 70.4641 22.4183 70.4641 22.8211C70.4641 23.1728 70.1819 23.5302 69.7247 23.5302C69.3184 23.5302 68.9911 23.2581 68.9911 22.7926C68.9911 22.3275 69.3184 22.0496 69.7247 22.0496Z" fill="#000A4A"/>
<path d="M71.9424 21.3973V24.194H72.7548V22.7361C72.7548 22.3164 73.0537 22.0896 73.4036 22.0896C73.5729 22.0896 73.714 22.1349 73.8493 22.2314L74.188 21.5845C73.9904 21.4085 73.7705 21.3293 73.5052 21.3293C73.1948 21.3293 72.9467 21.4427 72.7605 21.7037L72.6985 21.3973H71.9424Z" fill="#000A4A"/>
<path d="M77.1446 23.0593C77.3197 21.9135 76.6989 21.3177 75.7511 21.3177C74.8425 21.3177 74.2728 21.9135 74.2728 22.7645C74.2728 23.6609 74.8259 24.2566 75.836 24.2566C76.2534 24.2566 76.7332 24.1375 77.0322 23.8423L76.575 23.3318C76.3777 23.5021 76.073 23.5532 75.8528 23.5532C75.3959 23.5532 75.1363 23.3318 75.0966 23.0597H77.1449L77.1446 23.0593ZM75.0963 22.4636C75.1751 22.1857 75.4236 22.0154 75.7508 22.0154C76.0892 22.0154 76.3996 22.1572 76.4167 22.4636H75.0963Z" fill="#000A4A"/>
<path d="M80.2818 24.194V22.6907C80.2818 22.3729 80.4737 22.0949 80.7952 22.0949C81.1224 22.0949 81.2184 22.3275 81.2184 22.6792V24.194H82.0365V22.6623C82.0365 21.6183 81.5062 21.3235 80.9248 21.3235C80.5127 21.3235 80.2478 21.4711 79.9993 21.8512C79.8189 21.4426 79.4916 21.3292 79.1869 21.3292C78.9499 21.3292 78.6284 21.403 78.4533 21.7094L78.3968 21.3918H77.686V24.1943H78.4984V22.6964C78.4984 22.3789 78.6789 22.078 79.0007 22.078C79.3337 22.078 79.4805 22.3221 79.4805 22.6907V24.194H80.2818Z" fill="#000A4A"/>
<path d="M85.3995 23.0593C85.5745 21.9135 84.9537 21.3177 84.006 21.3177C83.0973 21.3177 82.5276 21.9135 82.5276 22.7645C82.5276 23.6609 83.0808 24.2566 84.0908 24.2566C84.5083 24.2566 84.988 24.1375 85.287 23.8423L84.8298 23.3318C84.6325 23.5021 84.3278 23.5532 84.1076 23.5532C83.6508 23.5532 83.3912 23.3318 83.3515 23.0597H85.3998L85.3995 23.0593ZM83.3512 22.4636C83.43 22.1857 83.6784 22.0154 84.0057 22.0154C84.344 22.0154 84.6544 22.1572 84.6716 22.4636H83.3512Z" fill="#000A4A"/>
</svg>
