<svg width="20" height="18" viewBox="0 0 20 18" fill="none" xmlns="http://www.w3.org/2000/svg">
<path d="M13.3334 12.3332L10 8.9999M10 8.9999L6.66669 12.3332M10 8.9999V16.4999M16.9917 14.3249C17.8045 13.8818 18.4466 13.1806 18.8166 12.3321C19.1866 11.4835 19.2635 10.5359 19.0352 9.63881C18.8069 8.7417 18.2863 7.94616 17.5556 7.37778C16.8249 6.80939 15.9257 6.50052 15 6.4999H13.95C13.6978 5.52427 13.2277 4.61852 12.575 3.85073C11.9223 3.08295 11.1041 2.47311 10.1818 2.06708C9.25949 1.66104 8.25715 1.46937 7.25013 1.50647C6.2431 1.54358 5.25758 1.80849 4.36768 2.28129C3.47777 2.7541 2.70662 3.42249 2.11221 4.23622C1.5178 5.04996 1.1156 5.98785 0.935844 6.9794C0.756086 7.97095 0.803449 8.99035 1.07437 9.96096C1.3453 10.9316 1.83273 11.8281 2.50003 12.5832" stroke="#344054" stroke-width="1.67" stroke-linecap="round" stroke-linejoin="round"/>
</svg>
